Coordinates
version=1
nRows=11
nColumns=63
inDegrees=yes

Units are S.I. units (second, meters, Newtons, ...)
If the header above contains a line with 'inDegrees', this indicates whether rotational values are in degrees (yes) or radians (no).

endheader
time	pelvis_tilt	pelvis_list	pelvis_rotation	pelvis_tx	pelvis_ty	pelvis_tz	hip_flexion_r	hip_adduction_r	hip_rotation_r	knee_angle_r	knee_angle_r_beta	ankle_angle_r	subtalar_angle_r	mtp_angle_r	hip_flexion_l	hip_adduction_l	hip_rotation_l	knee_angle_l	knee_angle_l_beta	ankle_angle_l	subtalar_angle_l	mtp_angle_l	L5_S1_Flex_Ext	L5_S1_Lat_Bending	L5_S1_axial_rotation	L4_L5_Flex_Ext	L4_L5_Lat_Bending	L4_L5_axial_rotation	L3_L4_Flex_Ext	L3_L4_Lat_Bending	L3_L4_axial_rotation	L2_L3_Flex_Ext	L2_L3_Lat_Bending	L2_L3_axial_rotation	L1_L2_Flex_Ext	L1_L2_Lat_Bending	L1_L2_axial_rotation	L1_T12_Flex_Ext	L1_T12_Lat_Bending	L1_T12_axial_rotation	Abs_r3	Abs_r2	Abs_r1	Abs_t1	Abs_t2	neck_flexion	neck_bending	neck_rotation	arm_flex_r	arm_add_r	arm_rot_r	elbow_flex_r	pro_sup_r	wrist_flex_r	wrist_dev_r	arm_flex_l	arm_add_l	arm_rot_l	elbow_flex_l	pro_sup_l	wrist_flex_l	wrist_dev_l
0.000000	-2.342151	-4.717584	88.610255	0.191220	1.020470	0.141854	8.044461	-5.465284	-16.043509	20.067467	0.350243	39.071645	18.973319	0.000000	2.134450	3.909299	-7.065548	8.651557	0.150998	30.453981	-2.291095	0.000000	0.136979	-0.413878	1.177330	0.254383	-0.550457	1.250913	0.225042	-1.006302	1.250913	0.156553	-1.006302	1.030164	0.127198	-0.843979	0.956581	0.078270	-0.641096	0.882998	0.978425	-4.681866	6.547956	0.000000	0.000000	21.860979	4.448957	-14.630660	27.973009	-16.591799	66.520562	60.788220	81.678380	8.324076	8.504453	30.693250	-5.553679	61.720362	51.770507	78.444026	-1.644241	0.555468
0.017544	-2.020380	-4.626974	87.769348	0.191267	1.021356	0.142145	8.242337	-5.071687	-14.970563	20.180513	0.352216	38.813980	18.975031	0.000000	2.085964	3.520893	-8.329313	8.885056	0.155073	30.607492	-1.918713	0.000000	0.134066	-0.352160	1.295538	0.248974	-0.468373	1.376509	0.220257	-0.856243	1.376509	0.153224	-0.856243	1.133595	0.124494	-0.718125	1.052624	0.076605	-0.545496	0.971653	0.957619	-3.983709	7.205392	0.000000	0.000000	21.851367	4.090823	-13.877768	28.715653	-16.944333	67.545430	60.482100	87.494655	9.257530	11.808244	31.139554	-5.628737	62.478061	51.243444	80.658905	-0.956323	1.871748
0.035088	-1.745304	-4.568550	87.210764	0.191273	1.022123	0.142408	8.372651	-4.739064	-14.225643	20.223216	0.352962	38.586666	18.971895	0.000000	2.077358	3.172778	-9.415812	9.093871	0.158718	30.736391	-1.380559	0.000000	0.132442	-0.303834	1.383469	0.245959	-0.404099	1.469936	0.217590	-0.738741	1.469936	0.151368	-0.738741	1.210536	0.122986	-0.619577	1.124069	0.075678	-0.470638	1.037602	0.946023	-3.437025	7.694442	0.000000	0.000000	21.778092	3.813329	-13.424620	29.177450	-17.257890	68.000435	60.386776	91.570450	9.661693	13.866726	31.503053	-5.683383	62.965279	51.031199	82.534597	-0.218982	3.010219
0.052632	-1.512961	-4.537599	86.907260	0.191238	1.022779	0.142637	8.440838	-4.462437	-13.776354	20.203907	0.352625	38.388151	18.964540	0.000000	2.103995	2.861810	-10.339574	9.282415	0.162009	30.846250	-0.696355	0.000000	0.131888	-0.267449	1.443071	0.244929	-0.355707	1.533263	0.216679	-0.650275	1.533263	0.150735	-0.650275	1.262687	0.122471	-0.545382	1.172495	0.075361	-0.414278	1.082303	0.942063	-3.025435	8.025929	0.000000	0.000000	21.643145	3.607528	-13.228614	29.369287	-17.537071	67.946555	60.482898	94.065164	9.600612	14.834788	31.776269	-5.728975	63.193610	51.102061	84.098444	0.537230	3.967206
0.070175	-1.319390	-4.529407	86.831590	0.191160	1.023333	0.142830	8.452331	-4.236827	-13.590303	20.130916	0.351351	38.216885	18.953594	0.000000	2.161241	2.584843	-11.115127	9.455098	0.165023	30.942642	0.114174	0.000000	0.132182	-0.241559	1.476288	0.245476	-0.321273	1.568557	0.217162	-0.587325	1.568557	0.151071	-0.587325	1.291752	0.122745	-0.492586	1.199484	0.075529	-0.374174	1.107216	0.944165	-2.732558	8.210674	0.000000	0.000000	21.448517	3.464474	-13.247146	29.302049	-17.786478	67.444766	60.751118	95.138196	9.138332	14.867319	31.951726	-5.776872	63.174648	51.424318	85.377790	1.281759	4.739035
0.087719	-1.160630	-4.539257	86.956508	0.191038	1.023795	0.142983	8.412564	-4.057257	-13.635096	20.012575	0.349285	38.071318	18.939685	0.000000	2.244460	2.338734	-11.756998	9.616334	0.167837	31.031137	1.031307	0.000000	0.133105	-0.224714	1.485067	0.247189	-0.298870	1.577884	0.218678	-0.546370	1.577884	0.152126	-0.546370	1.299434	0.123601	-0.458238	1.206617	0.076056	-0.348083	1.113801	0.950756	-2.542014	8.259499	0.000000	0.000000	21.196200	3.375220	-13.437613	28.986625	-18.010714	66.556046	61.172086	94.948945	8.338902	14.119208	32.021944	-5.838434	62.919986	51.966257	86.399979	1.984053	5.322032
0.105263	-1.032719	-4.562437	87.254771	0.190870	1.024173	0.143093	8.326973	-3.918749	-13.878339	19.857214	0.346574	37.949900	18.923442	0.000000	2.349017	2.120338	-12.279716	9.770533	0.170528	31.117308	2.035319	0.000000	0.134436	-0.215468	1.471354	0.249661	-0.286573	1.563313	0.220865	-0.523890	1.563313	0.153647	-0.523890	1.287434	0.124837	-0.439383	1.195475	0.076817	-0.333760	1.103515	0.960262	-2.437421	8.183228	0.000000	0.000000	20.888186	3.330818	-13.757414	28.433900	-18.214382	65.341372	61.726454	93.656809	7.266368	12.745344	31.979448	-5.925017	62.441218	52.696167	87.192355	2.613559	5.712523
0.122807	-0.931696	-4.594231	87.699133	0.190654	1.024477	0.143156	8.200990	-3.816326	-14.287640	19.673164	0.343361	37.851080	18.905494	0.000000	2.470276	1.926512	-12.697808	9.922110	0.173173	31.206727	3.106489	0.000000	0.135954	-0.212372	1.437093	0.252481	-0.282455	1.526911	0.223359	-0.516362	1.526911	0.155382	-0.516362	1.257457	0.126247	-0.433070	1.167638	0.077684	-0.328965	1.077820	0.971108	-2.402400	7.992681	0.000000	0.000000	20.526467	3.322324	-14.163944	27.654761	-18.402083	63.861720	62.394872	91.421188	5.984777	10.900615	31.816759	-6.047983	61.749937	53.582336	87.782261	3.139725	5.906834
0.140351	-0.853598	-4.629925	88.262349	0.190390	1.024715	0.143168	8.040050	-3.745010	-14.830605	19.468755	0.339794	37.773307	18.886469	0.000000	2.603601	1.754112	-13.025804	10.075474	0.175850	31.304965	4.225093	0.000000	0.137440	-0.213979	1.384232	0.255240	-0.284592	1.470746	0.225800	-0.520268	1.470746	0.157080	-0.520268	1.211203	0.127627	-0.436345	1.124688	0.078533	-0.331453	1.038174	0.981721	-2.420569	7.698681	0.000000	0.000000	20.113033	3.340788	-14.614601	26.660096	-18.578419	62.178069	63.157991	88.401480	4.558176	8.739910	31.526401	-6.218689	60.857736	54.593050	88.197041	3.531998	5.901291
0.157895	-0.794464	-4.664804	88.917175	0.190076	1.024898	0.143125	7.849588	-3.699823	-15.474840	19.252319	0.336016	37.715031	18.866995	0.000000	2.744358	1.599992	-13.278230	10.235039	0.178635	31.417594	5.371409	0.000000	0.138673	-0.218839	1.314715	0.257529	-0.291056	1.396885	0.227826	-0.532085	1.396885	0.158489	-0.532085	1.150376	0.128772	-0.446256	1.068206	0.079238	-0.338981	0.986036	0.990526	-2.475549	7.312050	0.000000	0.000000	19.649876	3.377266	-15.066782	25.460790	-18.747992	60.351395	63.996462	84.757084	3.050612	6.418118	31.100895	-6.448495	59.776210	55.696599	88.464039	3.759824	5.692221
0.175439	-0.750333	-4.694154	89.636364	0.189711	1.025033	0.143025	7.635037	-3.675787	-16.187951	19.032187	0.332174	37.674702	18.847702	0.000000	2.887910	1.461009	-13.469616	10.405216	0.181605	31.550187	6.525712	0.000000	0.139432	-0.225505	1.230489	0.258940	-0.299922	1.307394	0.229073	-0.548293	1.307394	0.159357	-0.548293	1.076678	0.129477	-0.459850	0.999772	0.079672	-0.349307	0.922867	0.995951	-2.550959	6.843610	0.000000	0.000000	19.138988	3.422810	-15.477884	24.067730	-18.915406	58.442676	64.890937	80.647399	1.526132	4.090128	30.532764	-6.748759	58.516951	56.861270	88.610599	3.792653	5.275948
